# xmcd CD database file
#
# Track frame offsets:
#	150
#	15710
#	32500
#	45409
#	59650
#	74890
#	90270
#	110856
#	129179
#	147455
#	162038
#	174274
#	184774
#	198873
#	217945
#	230994
#	245941
#
# Disc length: 3503 seconds
#
# Revision: 1
# Processed by: cddbd v1.5.2PL0 Copyright (c) Steve Scherf et al.
# Submitted via: CDex 1.70beta2
#
DISCID=f50dad11
DTITLE=Various Artist - Country Plouzaky
DYEAR=2009
DGENRE=Country
TTITLE0=Sbohem lasko
TTITLE1=Tam u nebeskejch bran
TTITLE2=Cervena reka
TTITLE3=Popelky
TTITLE4=Az na vrcholky hor
TTITLE5=Chtel bych byt medvidkem
TTITLE6=Jizni eskadrona
TTITLE7=Az me andele
TTITLE8=Pomaly kone
TTITLE9=Az se ti jednou bude zdat
TTITLE10=Zelene plane
TTITLE11=Ruze z papiru
TTITLE12=Frankie dlouhan
TTITLE13=Vyznani
TTITLE14=Tulacky rano
TTITLE15=Poutnik s kytarou
TTITLE16=Zafukane
EXTD=YEAR: 2009
EXTT0=
EXTT1=
EXTT2=
EXTT3=
EXTT4=
EXTT5=
EXTT6=
EXTT7=
EXTT8=
EXTT9=
EXTT10=
EXTT11=
EXTT12=
EXTT13=
EXTT14=
EXTT15=
EXTT16=
PLAYORDER=
